<svg width="46" height="46" viewBox="0 0 46 46" fill="none" xmlns="http://www.w3.org/2000/svg">
<rect x="0.5" y="0.5" width="45" height="45" rx="1.5" stroke="white"/>
<path d="M26.9736 27.3345C26.7102 27.0724 26.2842 27.0734 26.022 27.3368L23.6729 29.6973V15.4471C23.6729 15.0755 23.3716 14.7742 23 14.7742C22.6284 14.7742 22.3271 15.0755 22.3271 15.4471V29.6973L19.9779 27.3367C19.7158 27.0733 19.2898 27.0723 19.0264 27.3345C18.7629 27.5967 18.7619 28.0227 19.0241 28.2861L22.5231 31.802C22.5233 31.8023 22.5235 31.8024 22.5237 31.8026C22.7858 32.0654 23.2133 32.0662 23.4763 31.8027C23.4765 31.8024 23.4767 31.8023 23.4769 31.8021L26.9759 28.2861C27.238 28.0228 27.2371 27.5967 26.9736 27.3345Z" fill="#367BF5"/>
</svg>
