<?xml version="1.0" encoding="UTF-8" standalone="no"?>
<!DOCTYPE svg PUBLIC "-//W3C//DTD SVG 1.1//EN" "http://www.w3.org/Graphics/SVG/1.1/DTD/svg11.dtd">
<svg width="100%" height="100%" viewBox="0 0 275 32" version="1.1" xmlns="http://www.w3.org/2000/svg" xmlns:xlink="http://www.w3.org/1999/xlink" xml:space="preserve" xmlns:serif="http://www.serif.com/" style="fill-rule:evenodd;clip-rule:evenodd;stroke-linejoin:round;stroke-miterlimit:2;">
    <g transform="matrix(1,0,0,1,-2820.96,-1331.13)">
        <g transform="matrix(1,0,0,1,936,559)">
            <g transform="matrix(1,0,0,1,2136.34,1145.57)">
                <g transform="matrix(2.66832,0,0,2.66832,-772.076,-930.532)">
                    <g transform="matrix(12,0,0,12,218.933,220.33)">
                        <path d="M0.062,0L0.256,0L0.256,-0.25L0.587,-0.25L0.587,-0.411L0.256,-0.411L0.256,-0.53L0.622,-0.53L0.622,-0.7L0.062,-0.7L0.062,0Z" style="fill:white;fill-rule:nonzero;"/>
                    </g>
                    <g transform="matrix(12,0,0,12,226.709,220.33)">
                        <path d="M0.414,0.014C0.63,0.014 0.792,-0.149 0.792,-0.35C0.792,-0.553 0.632,-0.714 0.416,-0.714C0.2,-0.714 0.038,-0.551 0.038,-0.35C0.038,-0.147 0.198,0.014 0.414,0.014ZM0.416,-0.161C0.31,-0.161 0.237,-0.249 0.237,-0.35C0.237,-0.453 0.308,-0.539 0.414,-0.539C0.521,-0.539 0.594,-0.451 0.594,-0.35C0.594,-0.247 0.523,-0.161 0.416,-0.161Z" style="fill:white;fill-rule:nonzero;"/>
                    </g>
                    <g transform="matrix(12,0,0,12,236.681,220.33)">
                        <path d="M0.062,0L0.254,0L0.254,-0.384L0.553,0L0.723,0L0.723,-0.7L0.531,-0.7L0.531,-0.33L0.243,-0.7L0.062,-0.7L0.062,0Z" style="fill:white;fill-rule:nonzero;"/>
                    </g>
                    <g transform="matrix(12,0,0,12,246.101,220.33)">
                        <path d="M0.233,0L0.427,0L0.427,-0.53L0.637,-0.53L0.637,-0.7L0.023,-0.7L0.023,-0.53L0.233,-0.53L0.233,0Z" style="fill:white;fill-rule:nonzero;"/>
                    </g>
                    <g transform="matrix(12,0,0,12,252.941,220.33)">
                        <path d="M0.006,0L0.21,0L0.26,-0.125L0.53,-0.125L0.581,0L0.789,0L0.491,-0.705L0.304,-0.705L0.006,0ZM0.317,-0.276L0.396,-0.475L0.474,-0.276L0.317,-0.276Z" style="fill:white;fill-rule:nonzero;"/>
                    </g>
                    <g transform="matrix(12,0,0,12,262.481,220.33)">
                        <path d="M0.062,0L0.254,0L0.254,-0.384L0.553,0L0.723,0L0.723,-0.7L0.531,-0.7L0.531,-0.33L0.243,-0.7L0.062,-0.7L0.062,0Z" style="fill:white;fill-rule:nonzero;"/>
                    </g>
                    <g transform="matrix(12,0,0,12,271.901,220.33)">
                        <path d="M0.062,0L0.63,0L0.63,-0.165L0.254,-0.165L0.254,-0.276L0.59,-0.276L0.59,-0.429L0.254,-0.429L0.254,-0.535L0.625,-0.535L0.625,-0.7L0.062,-0.7L0.062,0Z" style="fill:white;fill-rule:nonzero;"/>
                    </g>
                    <g transform="matrix(12,0,0,12,279.905,220.33)">
                        <path d="M0.062,0L0.256,0L0.256,-0.212L0.341,-0.212L0.482,0L0.706,0L0.539,-0.244C0.626,-0.281 0.683,-0.352 0.683,-0.459C0.683,-0.53 0.662,-0.584 0.621,-0.625C0.574,-0.672 0.5,-0.7 0.393,-0.7L0.062,-0.7L0.062,0ZM0.256,-0.364L0.256,-0.532L0.383,-0.532C0.448,-0.532 0.488,-0.504 0.488,-0.449C0.488,-0.396 0.45,-0.364 0.384,-0.364L0.256,-0.364Z" style="fill:white;fill-rule:nonzero;"/>
                    </g>
                    <g transform="matrix(12,0,0,12,288.533,220.33)">
                        <path d="M0.414,0.014C0.63,0.014 0.792,-0.149 0.792,-0.35C0.792,-0.553 0.632,-0.714 0.416,-0.714C0.2,-0.714 0.038,-0.551 0.038,-0.35C0.038,-0.147 0.198,0.014 0.414,0.014ZM0.416,-0.161C0.31,-0.161 0.237,-0.249 0.237,-0.35C0.237,-0.453 0.308,-0.539 0.414,-0.539C0.521,-0.539 0.594,-0.451 0.594,-0.35C0.594,-0.247 0.523,-0.161 0.416,-0.161Z" style="fill:white;fill-rule:nonzero;"/>
                    </g>
                </g>
                <g transform="matrix(0.440105,0,0,0.440105,-188.274,-240.096)">
                    <g transform="matrix(1,0,0,1,-531.385,-739.811)">
                        <path d="M388,505.352C388,505.352 394.768,480.086 418,482C439.812,483.797 448.602,493.688 463,493C480.136,492.181 494,477.058 494,477.058C494,477.058 494.41,487.544 487,495C479.59,502.456 462.051,513.022 442,505C425.211,498.283 418.6,493.904 405,497C394.232,499.451 388,505.352 388,505.352Z" style="fill:white;"/>
                    </g>
                    <g transform="matrix(0.22706,0.39328,0.39328,-0.22706,-272.441,-434.023)">
                        <path d="M556,218C556,218 532.733,236.331 515,223C497.267,209.669 491.196,205.491 481,207C472.521,208.255 460.986,220.561 466,230C471.014,239.439 485.76,247.455 499,249C513.429,250.684 521.775,248.105 534,241C551.936,230.576 556,218 556,218Z" style="fill:white;"/>
                    </g>
                    <g transform="matrix(-0.22706,0.39328,0.39328,0.22706,-21.0165,-525.182)">
                        <path d="M556,218C556,218 532.733,236.331 515,223C497.267,209.669 491.196,205.491 481,207C472.521,208.255 460.986,220.561 466,230C471.014,239.439 485.76,247.455 499,249C513.429,250.684 521.775,248.105 534,241C551.936,230.576 556,218 556,218Z" style="fill:white;"/>
                    </g>
                </g>
            </g>
        </g>
    </g>
</svg>
