<svg width="201" height="167" viewBox="0 0 201 167" fill="none" xmlns="http://www.w3.org/2000/svg">
<circle cx="110.5" cy="87.5" r="70.5" fill="#FFB800"/>
<circle cx="110.5" cy="87.5" r="78" stroke="#367BF5" stroke-width="3"/>
<path d="M145.946 88.9712C145.624 88.3137 145.624 87.5596 145.946 86.9022L148.925 80.808C150.583 77.4149 149.269 73.3705 145.933 71.6004L139.941 68.4211C139.295 68.0782 138.851 67.4679 138.725 66.7474L137.553 60.066C136.9 56.346 133.459 53.8463 129.72 54.3753L123.004 55.3253C122.279 55.4276 121.562 55.1946 121.037 54.6859L116.161 49.9696C113.447 47.3435 109.194 47.3434 106.48 49.9696L101.604 54.6863C101.078 55.1952 100.362 55.4278 99.6368 55.3258L92.9205 54.3757C89.1804 53.8464 85.7406 56.3465 85.088 60.0665L83.9162 66.7475C83.7896 67.4683 83.3464 68.0784 82.7001 68.4214L76.7081 71.6007C73.3719 73.3707 72.0578 77.4153 73.7164 80.8085L76.6952 86.9025C77.0166 87.5601 77.0166 88.3142 76.6952 88.9716L73.7162 95.0656C72.0576 98.4587 73.3718 102.503 76.708 104.273L82.7 107.452C83.3464 107.795 83.7896 108.406 83.9162 109.126L85.088 115.808C85.6821 119.194 88.5859 121.569 91.9232 121.569C92.2519 121.569 92.5854 121.546 92.9207 121.498L99.637 120.548C100.361 120.445 101.079 120.679 101.605 121.188L106.48 125.904C107.837 127.217 109.579 127.873 111.32 127.873C113.062 127.873 114.804 127.217 116.161 125.904L121.037 121.188C121.563 120.679 122.28 120.446 123.004 120.548L129.72 121.498C133.461 122.027 136.9 119.527 137.553 115.807L138.725 109.126C138.852 108.406 139.295 107.796 139.941 107.452L145.933 104.273C149.269 102.503 150.583 98.4586 148.925 95.0654L145.946 88.9712ZM143.774 100.204L137.782 103.383C135.871 104.397 134.561 106.2 134.188 108.33L133.016 115.011C132.795 116.27 131.631 117.115 130.366 116.937L123.649 115.987C121.507 115.683 119.388 116.373 117.834 117.876L112.958 122.592C112.04 123.481 110.601 123.481 109.683 122.592L104.807 117.876C103.494 116.605 101.776 115.916 99.983 115.916C99.6544 115.916 99.3233 115.94 98.9916 115.987L92.2753 116.937C91.0108 117.115 89.8462 116.27 89.6253 115.011L88.4533 108.33C88.0795 106.199 86.7694 104.396 84.8589 103.383L78.8669 100.203C77.7381 99.6046 77.2935 98.2363 77.8546 97.0883L80.8336 90.9941C81.7833 89.051 81.7833 86.8223 80.8336 84.8792L77.8546 78.785C77.2935 77.637 77.7381 76.2687 78.8669 75.6698L84.8589 72.4905C86.7693 71.4767 88.0795 69.6736 88.4531 67.5433L89.625 60.8621C89.8459 59.6035 91.0094 58.7579 92.275 58.9367L98.9913 59.8868C101.132 60.1899 103.253 59.5008 104.807 57.9971L109.682 53.2809C110.601 52.3927 112.04 52.3927 112.958 53.2809L117.833 57.9971C119.388 59.501 121.508 60.1899 123.649 59.8868L130.365 58.9367C131.63 58.7578 132.795 59.6035 133.015 60.8621L134.187 67.5434C134.561 69.6738 135.871 71.477 137.782 72.4905L143.774 75.6698C144.902 76.2687 145.347 77.637 144.786 78.785L141.807 84.879C140.857 86.822 140.857 89.051 141.807 90.9939L144.786 97.088C145.347 98.2363 144.903 99.6047 143.774 100.204Z" fill="white"/>
<path d="M128.15 71.1065C127.251 70.207 125.793 70.207 124.893 71.1065L94.4902 101.51C93.5907 102.409 93.5907 103.867 94.4902 104.767C94.9399 105.217 95.5295 105.442 96.1188 105.442C96.7082 105.442 97.2979 105.217 97.7475 104.767L128.15 74.3641C129.05 73.4645 129.05 72.0062 128.15 71.1065Z" fill="white"/>
<path d="M102.107 67.2065C97.4499 67.2065 93.6611 70.9953 93.6611 75.6523C93.6611 80.3092 97.4499 84.098 102.107 84.098C106.764 84.098 110.553 80.3092 110.553 75.6523C110.553 70.9953 106.764 67.2065 102.107 67.2065ZM102.107 79.4911C99.9901 79.4911 98.268 77.769 98.268 75.6521C98.268 73.5353 99.9901 71.8132 102.107 71.8132C104.224 71.8132 105.946 73.5353 105.946 75.6521C105.946 77.769 104.224 79.4911 102.107 79.4911Z" fill="white"/>
<path d="M120.534 91.7756C115.877 91.7756 112.088 95.5644 112.088 100.221C112.088 104.878 115.877 108.667 120.534 108.667C125.191 108.667 128.979 104.878 128.979 100.221C128.979 95.5644 125.191 91.7756 120.534 91.7756ZM120.534 104.06C118.417 104.06 116.695 102.338 116.695 100.221C116.695 98.1046 118.417 96.3825 120.534 96.3825C122.651 96.3825 124.373 98.1046 124.373 100.221C124.373 102.338 122.651 104.06 120.534 104.06Z" fill="white"/>
<circle cx="11.5" cy="112.5" r="11.5" fill="#FFB800"/>
<circle cx="189.5" cy="11.5" r="11.5" fill="#367BF5"/>
<circle cx="21" cy="66" r="7" fill="#367BF5"/>
<circle cx="195.5" cy="41.5" r="4.5" fill="#FFB800"/>
</svg>
