<svg width="534" height="273" viewBox="0 0 534 273" fill="none" xmlns="http://www.w3.org/2000/svg">
<circle cx="302.5" cy="87.5" r="70.5" fill="#FFB800"/>
<circle cx="302.5" cy="87.5" r="78" stroke="#367BF5" stroke-width="3"/>
<path d="M337.946 88.9712C337.624 88.3137 337.624 87.5596 337.946 86.9022L340.925 80.808C342.583 77.4149 341.269 73.3705 337.933 71.6004L331.941 68.4211C331.295 68.0782 330.851 67.4679 330.725 66.7474L329.553 60.066C328.9 56.346 325.459 53.8463 321.72 54.3753L315.004 55.3253C314.279 55.4276 313.562 55.1946 313.037 54.6859L308.161 49.9696C305.447 47.3435 301.194 47.3434 298.48 49.9696L293.604 54.6863C293.078 55.1952 292.362 55.4278 291.637 55.3258L284.921 54.3757C281.18 53.8464 277.741 56.3465 277.088 60.0665L275.916 66.7475C275.79 67.4683 275.346 68.0784 274.7 68.4214L268.708 71.6007C265.372 73.3707 264.058 77.4153 265.716 80.8085L268.695 86.9025C269.017 87.5601 269.017 88.3142 268.695 88.9716L265.716 95.0656C264.058 98.4587 265.372 102.503 268.708 104.273L274.7 107.452C275.346 107.795 275.79 108.406 275.916 109.126L277.088 115.808C277.682 119.194 280.586 121.569 283.923 121.569C284.252 121.569 284.585 121.546 284.921 121.498L291.637 120.548C292.361 120.445 293.079 120.679 293.605 121.188L298.48 125.904C299.837 127.217 301.579 127.873 303.32 127.873C305.062 127.873 306.804 127.217 308.161 125.904L313.037 121.188C313.563 120.679 314.28 120.446 315.004 120.548L321.72 121.498C325.461 122.027 328.9 119.527 329.553 115.807L330.725 109.126C330.852 108.406 331.295 107.796 331.941 107.452L337.933 104.273C341.269 102.503 342.583 98.4586 340.925 95.0654L337.946 88.9712ZM335.774 100.204L329.782 103.383C327.871 104.397 326.561 106.2 326.188 108.33L325.016 115.011C324.795 116.27 323.631 117.115 322.366 116.937L315.649 115.987C313.507 115.683 311.388 116.373 309.834 117.876L304.958 122.592C304.04 123.481 302.601 123.481 301.683 122.592L296.807 117.876C295.494 116.605 293.776 115.916 291.983 115.916C291.654 115.916 291.323 115.94 290.992 115.987L284.275 116.937C283.011 117.115 281.846 116.27 281.625 115.011L280.453 108.33C280.08 106.199 278.769 104.396 276.859 103.383L270.867 100.203C269.738 99.6046 269.293 98.2363 269.855 97.0883L272.834 90.9941C273.783 89.051 273.783 86.8223 272.834 84.8792L269.855 78.785C269.293 77.637 269.738 76.2687 270.867 75.6698L276.859 72.4905C278.769 71.4767 280.08 69.6736 280.453 67.5433L281.625 60.8621C281.846 59.6035 283.009 58.7579 284.275 58.9367L290.991 59.8868C293.132 60.1899 295.253 59.5008 296.807 57.9971L301.682 53.2809C302.601 52.3927 304.04 52.3927 304.958 53.2809L309.833 57.9971C311.388 59.501 313.508 60.1899 315.649 59.8868L322.365 58.9367C323.63 58.7578 324.795 59.6035 325.015 60.8621L326.187 67.5434C326.561 69.6738 327.871 71.477 329.782 72.4905L335.774 75.6698C336.902 76.2687 337.347 77.637 336.786 78.785L333.807 84.879C332.857 86.822 332.857 89.051 333.807 90.9939L336.786 97.088C337.347 98.2363 336.903 99.6047 335.774 100.204Z" fill="white"/>
<path d="M320.15 71.1065C319.251 70.207 317.793 70.207 316.893 71.1065L286.49 101.51C285.591 102.409 285.591 103.867 286.49 104.767C286.94 105.217 287.529 105.442 288.119 105.442C288.708 105.442 289.298 105.217 289.747 104.767L320.15 74.3641C321.05 73.4645 321.05 72.0062 320.15 71.1065Z" fill="white"/>
<path d="M294.107 67.2065C289.45 67.2065 285.661 70.9953 285.661 75.6523C285.661 80.3092 289.45 84.098 294.107 84.098C298.764 84.098 302.553 80.3092 302.553 75.6523C302.553 70.9953 298.764 67.2065 294.107 67.2065ZM294.107 79.4911C291.99 79.4911 290.268 77.769 290.268 75.6521C290.268 73.5353 291.99 71.8132 294.107 71.8132C296.224 71.8132 297.946 73.5353 297.946 75.6521C297.946 77.769 296.224 79.4911 294.107 79.4911Z" fill="white"/>
<path d="M312.534 91.7756C307.877 91.7756 304.088 95.5644 304.088 100.221C304.088 104.878 307.877 108.667 312.534 108.667C317.191 108.667 320.979 104.878 320.979 100.221C320.979 95.5644 317.191 91.7756 312.534 91.7756ZM312.534 104.06C310.417 104.06 308.695 102.338 308.695 100.221C308.695 98.1046 310.417 96.3825 312.534 96.3825C314.651 96.3825 316.373 98.1046 316.373 100.221C316.373 102.338 314.651 104.06 312.534 104.06Z" fill="white"/>
<circle cx="381.5" cy="198.5" r="22.5" fill="#FFB800"/>
<circle cx="19.5" cy="184.5" r="19.5" fill="#6398F7"/>
<circle cx="381" cy="198" r="27.5" stroke="white"/>
<circle cx="198.5" cy="112.5" r="11.5" fill="#FFB800"/>
<circle cx="19.5" cy="184.5" r="11.5" fill="#FFB800"/>
<circle cx="169.5" cy="210.5" r="62.5" fill="white" fill-opacity="0.16"/>
<circle cx="170" cy="211" r="36" fill="#FFB800"/>
<circle cx="170.5" cy="210.5" r="42" stroke="white"/>
<path d="M189.927 211.987C189.746 211.618 189.746 211.195 189.927 210.826L191.598 207.407C192.529 205.503 191.791 203.234 189.92 202.241L186.558 200.457C186.195 200.265 185.946 199.923 185.875 199.518L185.218 195.77C184.852 193.683 182.921 192.28 180.823 192.577L177.055 193.11C176.648 193.167 176.246 193.037 175.951 192.751L173.216 190.105C171.693 188.632 169.307 188.632 167.784 190.105L165.049 192.751C164.754 193.037 164.351 193.167 163.945 193.11L160.177 192.577C158.078 192.28 156.148 193.683 155.782 195.77L155.125 199.518C155.054 199.923 154.805 200.265 154.442 200.458L151.08 202.241C149.209 203.234 148.471 205.504 149.402 207.407L151.073 210.827C151.254 211.195 151.254 211.619 151.073 211.987L149.402 215.406C148.471 217.31 149.209 219.579 151.08 220.572L154.442 222.356C154.805 222.549 155.054 222.891 155.125 223.295L155.782 227.044C156.115 228.944 157.745 230.276 159.617 230.276C159.801 230.276 159.989 230.263 160.177 230.237L163.945 229.704C164.351 229.646 164.754 229.777 165.049 230.062L167.784 232.709C168.546 233.445 169.523 233.814 170.5 233.814C171.477 233.813 172.455 233.445 173.216 232.709L175.951 230.062C176.246 229.777 176.649 229.647 177.055 229.704L180.823 230.237C182.922 230.534 184.852 229.131 185.218 227.044L185.875 223.295C185.946 222.891 186.195 222.549 186.558 222.356L189.92 220.572C191.791 219.579 192.529 217.31 191.598 215.406L189.927 211.987ZM188.708 218.289L185.346 220.073C184.274 220.642 183.539 221.653 183.33 222.849L182.672 226.597C182.548 227.303 181.896 227.778 181.185 227.677L177.417 227.144C176.215 226.974 175.026 227.361 174.154 228.205L171.419 230.851C170.904 231.349 170.096 231.349 169.581 230.851L166.846 228.205C166.109 227.491 165.145 227.105 164.139 227.105C163.955 227.105 163.769 227.118 163.583 227.144L159.815 227.677C159.105 227.778 158.452 227.303 158.328 226.597L157.67 222.849C157.46 221.653 156.725 220.642 155.654 220.073L152.292 218.289C151.658 217.953 151.409 217.185 151.724 216.541L153.395 213.122C153.928 212.032 153.928 210.782 153.395 209.691L151.724 206.272C151.409 205.628 151.658 204.86 152.292 204.524L155.654 202.741C156.725 202.172 157.46 201.16 157.67 199.965L158.328 196.216C158.452 195.51 159.104 195.036 159.814 195.136L163.583 195.669C164.784 195.839 165.973 195.453 166.846 194.609L169.581 191.963C170.096 191.465 170.903 191.465 171.419 191.963L174.154 194.609C175.026 195.453 176.216 195.839 177.417 195.669L181.185 195.136C181.895 195.036 182.548 195.51 182.672 196.216L183.33 199.965C183.539 201.16 184.274 202.172 185.346 202.741L188.708 204.524C189.341 204.86 189.591 205.628 189.276 206.272L187.605 209.691C187.072 210.781 187.072 212.032 187.605 213.122L189.276 216.541C189.591 217.185 189.342 217.953 188.708 218.289Z" fill="white"/>
<path d="M179.943 201.964C179.438 201.46 178.62 201.46 178.115 201.964L161.057 219.022C160.553 219.527 160.553 220.345 161.057 220.85C161.31 221.102 161.64 221.228 161.971 221.228C162.302 221.228 162.632 221.102 162.885 220.85L179.942 203.792C180.447 203.287 180.447 202.469 179.943 201.964Z" fill="white"/>
<path d="M165.331 199.776C162.718 199.776 160.592 201.902 160.592 204.514C160.592 207.127 162.718 209.253 165.331 209.253C167.944 209.253 170.069 207.127 170.069 204.514C170.069 201.902 167.944 199.776 165.331 199.776ZM165.331 206.668C164.143 206.668 163.177 205.702 163.177 204.514C163.177 203.327 164.143 202.361 165.331 202.361C166.518 202.361 167.485 203.327 167.485 204.514C167.485 205.702 166.518 206.668 165.331 206.668Z" fill="white"/>
<path d="M175.669 213.561C173.056 213.561 170.931 215.686 170.931 218.299C170.931 220.912 173.056 223.038 175.669 223.038C178.282 223.038 180.408 220.912 180.408 218.299C180.408 215.686 178.282 213.561 175.669 213.561ZM175.669 220.453C174.482 220.453 173.515 219.487 173.515 218.299C173.515 217.111 174.481 216.145 175.669 216.145C176.857 216.145 177.823 217.111 177.823 218.299C177.823 219.487 176.857 220.453 175.669 220.453Z" fill="white"/>
<circle cx="522.5" cy="239.5" r="11.5" fill="#FFB800"/>
<circle cx="448.5" cy="120.5" r="11.5" fill="#FFB800"/>
<circle cx="282.5" cy="187.5" r="11.5" fill="#FFB800"/>
<circle cx="282.5" cy="187.5" r="4.5" fill="white" fill-opacity="0.29"/>
<circle cx="381.5" cy="11.5" r="11.5" fill="#367BF5"/>
<circle cx="213" cy="66" r="7" fill="#367BF5"/>
<circle cx="386.5" cy="123.5" r="4.5" fill="#FFB800"/>
<circle cx="387.5" cy="41.5" r="4.5" fill="#FFB800"/>
<path d="M393.698 197.434C393.585 197.202 393.585 196.937 393.698 196.705L394.748 194.558C395.332 193.363 394.869 191.938 393.694 191.314L391.583 190.194C391.355 190.073 391.199 189.858 391.154 189.605L390.741 187.251C390.512 185.94 389.299 185.06 387.982 185.246L385.616 185.581C385.361 185.617 385.108 185.535 384.923 185.355L383.205 183.694C382.249 182.769 380.751 182.769 379.795 183.694L378.077 185.356C377.892 185.535 377.639 185.617 377.384 185.581L375.018 185.246C373.7 185.06 372.488 185.94 372.259 187.251L371.846 189.605C371.801 189.859 371.645 190.073 371.417 190.194L369.306 191.314C368.131 191.938 367.668 193.363 368.252 194.558L369.302 196.705C369.415 196.937 369.415 197.202 369.302 197.434L368.252 199.581C367.668 200.776 368.131 202.201 369.306 202.825L371.417 203.945C371.645 204.065 371.801 204.28 371.846 204.534L372.259 206.888C372.468 208.081 373.491 208.918 374.666 208.918C374.782 208.918 374.9 208.91 375.018 208.893L377.384 208.558C377.639 208.522 377.892 208.604 378.077 208.783L379.795 210.445C380.273 210.908 380.886 211.139 381.5 211.139C382.113 211.139 382.727 210.907 383.205 210.445L384.923 208.783C385.108 208.604 385.361 208.522 385.616 208.558L387.982 208.893C389.3 209.079 390.512 208.199 390.741 206.888L391.154 204.534C391.199 204.28 391.355 204.065 391.583 203.945L393.694 202.825C394.869 202.201 395.332 200.776 394.748 199.581L393.698 197.434ZM392.933 201.391L390.822 202.511C390.149 202.868 389.688 203.503 389.556 204.254L389.143 206.608C389.065 207.051 388.655 207.349 388.209 207.286L385.843 206.951C385.089 206.844 384.342 207.087 383.794 207.617L382.077 209.278C381.753 209.591 381.247 209.591 380.923 209.278L379.206 207.617C378.743 207.169 378.138 206.926 377.506 206.926C377.39 206.926 377.273 206.935 377.157 206.951L374.791 207.286C374.345 207.349 373.935 207.051 373.857 206.608L373.444 204.254C373.312 203.503 372.851 202.868 372.178 202.511L370.067 201.391C369.669 201.18 369.513 200.698 369.71 200.293L370.76 198.146C371.094 197.462 371.094 196.677 370.76 195.992L369.71 193.845C369.513 193.441 369.669 192.959 370.067 192.748L372.178 191.628C372.851 191.271 373.312 190.635 373.444 189.885L373.857 187.531C373.935 187.088 374.345 186.79 374.79 186.853L377.157 187.188C377.911 187.294 378.658 187.052 379.205 186.522L380.923 184.86C381.246 184.547 381.753 184.547 382.077 184.86L383.794 186.522C384.342 187.052 385.089 187.294 385.843 187.188L388.209 186.853C388.655 186.79 389.065 187.088 389.143 187.531L389.556 189.885C389.687 190.636 390.149 191.271 390.822 191.628L392.933 192.748C393.331 192.959 393.487 193.441 393.29 193.845L392.24 195.992C391.906 196.677 391.906 197.462 392.24 198.146L393.29 200.293C393.487 200.698 393.331 201.18 392.933 201.391Z" fill="white"/>
<path d="M387.429 191.14C387.112 190.823 386.598 190.823 386.281 191.14L375.571 201.851C375.254 202.168 375.254 202.682 375.571 202.999C375.729 203.157 375.937 203.236 376.145 203.236C376.352 203.236 376.56 203.157 376.718 202.999L387.429 192.288C387.746 191.971 387.746 191.457 387.429 191.14Z" fill="white"/>
<path d="M378.254 189.766C376.614 189.766 375.279 191.101 375.279 192.742C375.279 194.382 376.614 195.717 378.254 195.717C379.895 195.717 381.23 194.382 381.23 192.742C381.23 191.101 379.895 189.766 378.254 189.766ZM378.254 194.094C377.508 194.094 376.902 193.487 376.902 192.742C376.902 191.996 377.508 191.389 378.254 191.389C379 191.389 379.607 191.996 379.607 192.742C379.607 193.487 379 194.094 378.254 194.094Z" fill="white"/>
<path d="M384.746 198.422C383.105 198.422 381.77 199.757 381.77 201.397C381.77 203.038 383.105 204.373 384.746 204.373C386.386 204.373 387.721 203.038 387.721 201.397C387.721 199.757 386.386 198.422 384.746 198.422ZM384.746 202.75C384 202.75 383.393 202.143 383.393 201.397C383.393 200.652 384 200.045 384.746 200.045C385.491 200.045 386.098 200.652 386.098 201.397C386.098 202.143 385.491 202.75 384.746 202.75Z" fill="white"/>
<circle cx="65.5" cy="251.5" r="4.5" fill="#FFB800"/>
</svg>
