<svg width="46" height="46" viewBox="0 0 46 46" fill="none" xmlns="http://www.w3.org/2000/svg">
<path d="M15.5577 45.7745C15.8572 46.0736 16.3423 46.0736 16.6418 45.7745L20.4751 41.9412L19.391 40.8571L16.0998 44.1484L1.85072 29.8993L10.5085 21.2415L9.42445 20.1574L0.22457 29.3573C-0.0745311 29.6568 -0.0745311 30.1419 0.22457 30.4414L15.5577 45.7745Z" fill="white"/>
<path d="M45.9949 16.0153L44.4616 2.21551C44.4219 1.85876 44.1404 1.57688 43.7836 1.53757L29.9838 0.00425677C29.7529 -0.0200756 29.5226 0.0607827 29.3576 0.224371L23.991 5.59097L25.0751 6.67507L30.1811 1.56901L43.0095 2.99339L44.4339 15.818L41.4257 18.8266L39.9687 9.02782C41.0146 8.6123 41.6091 7.50424 41.3766 6.40329C41.1445 5.30235 40.1529 4.52895 39.0284 4.57125C37.9042 4.61393 36.974 5.45995 36.8253 6.57549C36.6767 7.69066 37.3532 8.7508 38.4272 9.08622L39.6131 17.0594L28.9083 6.35762C28.6089 6.05815 28.1237 6.05815 27.8242 6.35762L23.991 10.1909L25.0751 11.275L28.3663 7.98377L38.0154 17.6329L36.2575 19.3908L37.3416 20.4749L39.6415 18.1749C39.685 18.1255 39.7216 18.0705 39.7505 18.0117L40.0724 20.1758L38.5574 21.6908L39.6415 22.7749L40.3528 22.0632L40.8398 25.3309C40.9555 26.2742 41.5788 27.0783 42.4633 27.4257C43.3483 27.7731 44.3519 27.608 45.0789 26.9956C45.8055 26.3832 46.1386 25.4222 45.9466 24.4912L44.5357 17.8803L45.7748 16.6416C45.9395 16.4769 46.0204 16.2467 45.9949 16.0153ZM39.0995 6.13302C39.5229 6.13302 39.8661 6.47629 39.8661 6.89967C39.8661 7.32306 39.5229 7.66633 39.0995 7.66633C38.6761 7.66633 38.3328 7.32306 38.3328 6.89967C38.3328 6.47629 38.6761 6.13302 39.0995 6.13302ZM44.4455 24.8027C44.5189 25.1826 44.3789 25.5727 44.0798 25.819C43.781 26.0653 43.3711 26.1282 43.0121 25.983C42.6531 25.8377 42.4023 25.5079 42.3585 25.1231L41.706 20.7141L43.248 19.1722L44.4455 24.8027Z" fill="white"/>
<path d="M5.59204 29.8175L10.575 24.8345L11.6591 25.9186L6.67616 30.9016L5.59204 29.8175Z" fill="white"/>
<path d="M7.96716 32.1938L12.9501 27.2108L14.0346 28.2949L9.05128 33.2779L7.96716 32.1938Z" fill="white"/>
<path d="M10.3442 34.5701L13.2574 31.6569L14.3419 32.741L11.4284 35.6542L10.3442 34.5701Z" fill="white"/>
<path d="M12.7209 36.9472L14.7915 34.877L15.8756 35.9611L13.8054 38.0316L12.7209 36.9472Z" fill="white"/>
<path d="M15.0977 39.3239L16.631 37.791L17.7151 38.8751L16.1821 40.408L15.0977 39.3239Z" fill="white"/>
<path d="M27.5996 42.1659C30.2114 42.1648 32.7539 41.3248 34.8521 39.7694L40.3812 45.2984C41.3159 46.2328 42.8309 46.2328 43.7653 45.2984C44.6996 44.3641 44.6996 42.8487 43.7653 41.9144L38.1082 36.2573L38.0101 36.3553C40.9453 31.6075 40.3007 25.4762 36.4431 21.4422C32.5851 17.4079 26.4886 16.4908 21.6146 19.2111C16.7403 21.9315 14.3205 27.6021 15.7292 33.0035C17.1374 38.4045 22.0178 42.1715 27.5996 42.1659ZM42.6812 42.9985C43.017 43.3342 43.017 43.8785 42.6812 44.2143C42.3454 44.5501 41.8011 44.5501 41.4653 44.2143L36.0328 38.7826C36.4502 38.3877 36.8392 37.9643 37.1974 37.5154L42.6812 42.9985ZM27.5996 19.1662C33.5273 19.1662 38.3328 23.9717 38.3328 29.8994C38.3328 35.8271 33.5273 40.6326 27.5996 40.6326C21.6719 40.6326 16.8664 35.8271 16.8664 29.8994C16.8728 23.9743 21.6745 19.1726 27.5996 19.1662Z" fill="white"/>
<path d="M27.5997 39.0993C32.6806 39.0993 36.7995 34.9804 36.7995 29.8994C36.7995 24.8184 32.6806 20.6995 27.5997 20.6995C22.5187 20.6995 18.3998 24.8184 18.3998 29.8994C18.4054 34.9781 22.5209 39.0937 27.5997 39.0993ZM27.5997 22.2328C31.8339 22.2328 35.2662 25.6652 35.2662 29.8994C35.2662 34.1336 31.8339 37.566 27.5997 37.566C23.3655 37.566 19.9331 34.1336 19.9331 29.8994C19.9376 25.6671 23.3673 22.2373 27.5997 22.2328Z" fill="white"/>
<path d="M28.3662 32.966H26.8329C26.4095 32.966 26.0663 32.6227 26.0663 32.1993H24.533C24.533 33.4695 25.5628 34.4993 26.8329 34.4993V36.0326H28.3662V34.4993C29.6364 34.4993 30.6662 33.4695 30.6662 32.1993V31.4327C30.6662 30.1625 29.6364 29.1327 28.3662 29.1327H26.8329C26.4095 29.1327 26.0663 28.7894 26.0663 28.3661V27.5994C26.0663 27.176 26.4095 26.8327 26.8329 26.8327H28.3662C28.7896 26.8327 29.1329 27.176 29.1329 27.5994H30.6662C30.6662 26.3292 29.6364 25.2994 28.3662 25.2994V23.7661H26.8329V25.2994C25.5628 25.2994 24.533 26.3292 24.533 27.5994V28.3661C24.533 29.6362 25.5628 30.666 26.8329 30.666H28.3662C28.7896 30.666 29.1329 31.0093 29.1329 31.4327V32.1993C29.1329 32.6227 28.7896 32.966 28.3662 32.966Z" fill="white"/>
<path d="M3.83328 18.3998H8.95468L14.121 22.0897C14.2509 22.1829 14.4066 22.233 14.5665 22.233C14.714 22.2327 14.8585 22.19 14.9827 22.1103C15.2481 21.9388 15.381 21.6225 15.3178 21.3129L14.7353 18.3998H19.1664C21.2826 18.3971 22.9971 16.6823 22.9997 14.5665V3.83328C22.9971 1.71712 21.2826 0.00262041 19.1664 0H3.83328C1.71712 0.00262041 0.00262041 1.71712 0 3.83328V14.5665C0.00262041 16.6823 1.71712 18.3971 3.83328 18.3998ZM1.53331 3.83328C1.53331 2.56313 2.56313 1.53331 3.83328 1.53331H19.1664C20.4366 1.53331 21.4664 2.56313 21.4664 3.83328V14.5665C21.4664 15.8366 20.4366 16.8664 19.1664 16.8664H13.7998C13.5696 16.8664 13.3513 16.9698 13.2057 17.1479C13.0601 17.3265 13.0025 17.5609 13.0485 17.7862L13.4318 19.7189L9.6431 17.0128C9.51432 16.9188 9.35935 16.8676 9.19987 16.8664H3.83328C2.56313 16.8664 1.53331 15.8366 1.53331 14.5665V3.83328Z" fill="white"/>
<path d="M3.83331 15.3329H19.9331V13.7996H4.59996V11.7549L6.13328 9.71101L7.82007 11.9597C7.97392 12.1525 8.20714 12.2652 8.45383 12.2663C8.70277 12.2595 8.93299 12.1323 9.07113 11.9249L11.568 8.1792L14.7436 11.9911C14.8899 12.1652 15.1056 12.2659 15.3332 12.2663C15.3571 12.2678 15.3811 12.2678 15.4054 12.2663C15.657 12.2423 15.8804 12.0963 16.0032 11.8751L19.8365 4.97519L18.4964 4.23174L15.2059 10.1535L12.0895 6.41192C11.9364 6.22251 11.7016 6.11844 11.4583 6.13304C11.2172 6.14614 10.996 6.27229 10.862 6.47332L8.39656 10.1733L6.74645 7.97294C6.59559 7.78951 6.37061 7.68319 6.13328 7.68319C5.89594 7.68319 5.67096 7.78951 5.5201 7.97294L4.59996 9.19966V3.83307H3.06665V14.5663C3.06665 14.9896 3.40992 15.3329 3.83331 15.3329Z" fill="white"/>
</svg>
