<svg width="48" height="46" viewBox="0 0 48 46" fill="none" xmlns="http://www.w3.org/2000/svg">
<path d="M47.8284 25.2135C47.3982 20.8857 45.4647 16.8058 42.3841 13.725C39.7514 11.0924 36.529 9.40067 33.1384 8.64843V6.27033C34.5233 5.9258 35.5526 4.67226 35.5526 3.18229C35.5526 1.42754 34.1251 0 32.3703 0H25.6314C23.8766 0 22.4491 1.42754 22.4491 3.18229C22.4491 4.67216 23.4785 5.9257 24.8632 6.27033V8.65508C21.483 9.4105 18.2713 11.0999 15.6461 13.7251C15.0716 14.2996 14.5419 14.9023 14.0569 15.5286C14.0334 15.5269 14.0099 15.5251 13.986 15.5251H7.31618C6.79934 15.5251 6.38021 15.9441 6.38021 16.4611C6.38021 16.978 6.79934 17.397 7.31618 17.397H12.7834C12.0971 18.5459 11.5438 19.7525 11.1226 20.9945H0.935968C0.419126 20.9945 0 21.4135 0 21.9305C0 22.4474 0.419126 22.8664 0.935968 22.8664H10.5937C10.3239 24.0505 10.1691 25.2556 10.1291 26.464H5.99019C5.47335 26.464 5.05423 26.883 5.05423 27.4C5.05423 27.9169 5.47335 28.336 5.99019 28.336H10.159C10.238 29.5475 10.4328 30.7526 10.7434 31.9335H4.67984C4.163 31.9335 3.74387 32.3526 3.74387 32.8695C3.74387 33.3864 4.163 33.8055 4.67984 33.8055H11.3407C12.2589 36.2344 13.6939 38.5109 15.6461 40.4632C18.7297 43.5468 22.8139 45.4807 27.1462 45.9087C27.7645 45.9698 28.3832 46 29.0011 46C32.6535 46 36.2594 44.943 39.3191 42.9505C39.7522 42.6684 39.8748 42.0886 39.5927 41.6554C39.3106 41.2223 38.7307 41.0997 38.2976 41.3818C31.6 45.7432 22.6304 44.8002 16.9698 39.1395C10.3279 32.4977 10.3279 21.6908 16.9698 15.0489C23.6115 8.40714 34.4184 8.40714 41.0603 15.0489C46.7135 20.7021 47.6616 29.6641 43.3147 36.3583C43.0332 36.7919 43.1564 37.3716 43.5899 37.653C44.0236 37.9346 44.6032 37.8113 44.8846 37.3778C47.2071 33.801 48.2526 29.481 47.8284 25.2135ZM24.321 3.18238C24.321 2.45982 24.9088 1.87203 25.6314 1.87203H32.3703C33.0929 1.87203 33.6807 2.45982 33.6807 3.18238C33.6807 3.90495 33.0929 4.49274 32.3703 4.49274H32.2024H25.7992H25.6314C24.9088 4.49274 24.321 3.90486 24.321 3.18238ZM26.7352 8.33329V6.36467H31.2665V8.32992C29.7618 8.15097 28.2395 8.15209 26.7352 8.33329Z" fill="white"/>
<path d="M41.7226 38.865C41.4755 38.865 41.235 38.9651 41.061 39.1392C40.886 39.3133 40.7867 39.5548 40.7867 39.8009C40.7867 40.0471 40.886 40.2885 41.061 40.4626C41.235 40.6377 41.4756 40.7369 41.7226 40.7369C41.9688 40.7369 42.2093 40.6377 42.3843 40.4626C42.5584 40.2885 42.6586 40.0471 42.6586 39.8009C42.6586 39.5548 42.5585 39.3133 42.3843 39.1392C42.2093 38.9651 41.9687 38.865 41.7226 38.865Z" fill="white"/>
<path d="M29.0151 12.5745C21.009 12.5745 14.4955 19.0879 14.4955 27.094C14.4955 35.1002 21.009 41.6136 29.0151 41.6136C37.0212 41.6136 43.5347 35.1002 43.5347 27.094C43.5347 19.0879 37.0212 12.5745 29.0151 12.5745ZM29.0151 39.7417C22.0411 39.7417 16.3674 34.0679 16.3674 27.094C16.3674 20.1201 22.0411 14.4464 29.0151 14.4464C35.9891 14.4464 41.6627 20.1201 41.6627 27.094C41.6627 34.0679 35.9891 39.7417 29.0151 39.7417Z" fill="white"/>
<path d="M34.9357 19.8498L30.2998 24.4856C29.9121 24.2939 29.4761 24.1856 29.0151 24.1856C28.554 24.1856 28.1181 24.2939 27.7304 24.4856L25.6556 22.4108C25.29 22.0453 24.6976 22.0453 24.3319 22.4108C23.9664 22.7763 23.9664 23.369 24.3319 23.7345L26.4066 25.8092C26.2149 26.1969 26.1067 26.633 26.1067 27.0939C26.1067 28.6976 27.4113 30.0024 29.0151 30.0024C30.6189 30.0024 31.9235 28.6976 31.9235 27.0939C31.9235 26.633 31.8152 26.1969 31.6235 25.8092L36.1233 21.3095L36.2593 21.1735C36.6248 20.808 36.6248 20.2153 36.2593 19.8498C35.8938 19.4843 35.3013 19.4843 34.9357 19.8498ZM29.0151 28.1305C28.4436 28.1305 27.9786 27.6655 27.9786 27.094C27.9786 26.5225 28.4436 26.0575 29.0151 26.0575C29.5866 26.0575 30.0516 26.5225 30.0516 27.094C30.0516 27.6655 29.5866 28.1305 29.0151 28.1305Z" fill="white"/>
<path d="M39.0224 26.1695H38.1552C37.6384 26.1695 37.2192 26.5885 37.2192 27.1054C37.2192 27.6224 37.6384 28.0414 38.1552 28.0414H39.0224C39.5392 28.0414 39.9583 27.6224 39.9583 27.1054C39.9583 26.5885 39.5392 26.1695 39.0224 26.1695Z" fill="white"/>
<path d="M19.8749 26.1467H19.0078C18.491 26.1467 18.0719 26.5657 18.0719 27.0826C18.0719 27.5995 18.491 28.0186 19.0078 28.0186H19.8749C20.3917 28.0186 20.8108 27.5995 20.8108 27.0826C20.8108 26.5657 20.3917 26.1467 19.8749 26.1467Z" fill="white"/>
<path d="M29.0265 18.8898C29.5433 18.8898 29.9624 18.4708 29.9624 17.9538V17.0868C29.9624 16.5698 29.5433 16.1508 29.0265 16.1508C28.5097 16.1508 28.0905 16.5698 28.0905 17.0868V17.9538C28.0905 18.4708 28.5097 18.8898 29.0265 18.8898Z" fill="white"/>
<path d="M29.0037 35.2982C28.4868 35.2982 28.0677 35.7173 28.0677 36.2342V37.1013C28.0677 37.6182 28.4868 38.0372 29.0037 38.0372C29.5205 38.0372 29.9396 37.6182 29.9396 37.1013V36.2342C29.9396 35.7173 29.5205 35.2982 29.0037 35.2982Z" fill="white"/>
<path d="M0.935953 31.9332C0.689797 31.9332 0.448322 32.0333 0.274234 32.2074C0.100147 32.3815 0 32.623 0 32.8691C0 33.1162 0.100053 33.3568 0.274234 33.5308C0.448415 33.7049 0.689797 33.8051 0.935953 33.8051C1.18211 33.8051 1.42358 33.7049 1.59758 33.5308C1.77167 33.3568 1.87191 33.1153 1.87191 32.8691C1.87191 32.623 1.77176 32.3815 1.59758 32.2074C1.42358 32.0333 1.18211 31.9332 0.935953 31.9332Z" fill="white"/>
</svg>
