<svg width="46" height="46" viewBox="0 0 46 46" fill="none" xmlns="http://www.w3.org/2000/svg">
<rect x="45.5" y="45.5" width="45" height="45" rx="1.5" transform="rotate(-180 45.5 45.5)" stroke="white"/>
<path d="M19.0264 19.3672C19.2898 19.6126 19.7158 19.6117 19.978 19.3651L22.3271 17.1555V30.4946C22.3271 30.8425 22.6284 31.1245 23 31.1245C23.3716 31.1245 23.6729 30.8425 23.6729 30.4946V17.1555L26.0221 19.3651C26.2842 19.6117 26.7102 19.6127 26.9736 19.3673C27.2371 19.1218 27.2381 18.723 26.9759 18.4765L23.4769 15.1853C23.4767 15.1851 23.4765 15.1849 23.4763 15.1847C23.2142 14.9388 22.7867 14.938 22.5237 15.1847C22.5235 15.1849 22.5233 15.1851 22.5231 15.1853L19.0241 18.4764C18.762 18.723 18.7629 19.1218 19.0264 19.3672Z" fill="#367BF5"/>
</svg>
