<svg width="75" height="75" viewBox="0 0 75 75" fill="none" xmlns="http://www.w3.org/2000/svg">
<path d="M26.3392 58.8L15.15 64.9033C14.4934 65.2613 13.9033 65.7014 13.3542 66.1811C19.8778 71.6816 28.2991 75 37.5 75C46.633 75 55.0005 71.7311 61.5057 66.3056C60.9057 65.799 60.2547 65.3434 59.533 64.9839L47.5514 58.9938C46.0033 58.2198 45.0255 56.6377 45.0255 54.9071V50.2061C45.3623 49.8226 45.7472 49.3302 46.159 48.7486C47.792 46.442 49.0274 43.9047 49.8835 41.2429C51.4203 40.7688 52.5524 39.3495 52.5524 37.6627V32.6448C52.5524 31.541 52.0613 30.5547 51.2986 29.8641V22.6104C51.2986 22.6104 52.7887 11.3221 37.5014 11.3221C22.2142 11.3221 23.7042 22.6104 23.7042 22.6104V29.8641C22.9401 30.5547 22.4505 31.541 22.4505 32.6448V37.6627C22.4505 38.9844 23.1453 40.1476 24.1854 40.8198C25.4392 46.2778 28.7222 50.2061 28.7222 50.2061V54.791C28.7208 56.4608 27.8066 57.999 26.3392 58.8Z" fill="#E7ECED"/>
<path d="M38.141 0.00558419C17.4339 -0.348189 0.359423 16.1518 0.00564892 36.8589C-0.195294 48.5999 5.03772 59.1523 13.3698 66.1697C13.9146 65.6943 14.499 65.2584 15.1486 64.9046L26.3377 58.8013C27.8052 58.0004 28.7193 56.4622 28.7193 54.7895V50.2046C28.7193 50.2046 25.4349 46.2763 24.1825 40.8183C23.1439 40.1461 22.4476 38.9844 22.4476 37.6612V32.6433C22.4476 31.5395 22.9387 30.5532 23.7014 29.8627V22.6089C23.7014 22.6089 22.2113 11.3207 37.4986 11.3207C52.7858 11.3207 51.2957 22.6089 51.2957 22.6089V29.8627C52.0599 30.5532 52.5495 31.5395 52.5495 32.6433V37.6612C52.5495 39.348 51.4174 40.7674 49.8807 41.2414C49.0245 43.9032 47.7891 46.4405 46.1561 48.7471C45.7443 49.3287 45.3594 49.8211 45.0226 50.2046V54.9056C45.0226 56.6362 46.0005 58.2197 47.5486 58.9924L59.5302 64.9825C60.2491 65.3419 60.8986 65.7962 61.4972 66.3013C69.5774 59.5627 74.7976 49.4872 74.9915 38.141C75.3481 17.4339 58.8495 0.359358 38.141 0.00558419Z" fill="#367BF5"/>
</svg>
