<svg width="46" height="46" viewBox="0 0 46 46" fill="none" xmlns="http://www.w3.org/2000/svg">
<path d="M45.2333 7.66667H42.9333V3.06667C42.9333 1.373 41.5603 0 39.8667 0H37.5667C37.1433 0 36.8 0.343275 36.8 0.766667V4.6H28.3053C27.8845 1.66999 25.1681 -0.364167 22.238 0.0566375C19.883 0.394833 18.0329 2.24499 17.6947 4.6H3.83333C3.40994 4.6 3.06667 4.94327 3.06667 5.36667V7.66667H0.766667C0.343275 7.66667 0 8.00994 0 8.43333V45.2333C0 45.6567 0.343275 46 0.766667 46H45.2333C45.6567 46 46 45.6567 46 45.2333V8.43333C46 8.00994 45.6567 7.66667 45.2333 7.66667ZM38.3333 1.53333H39.8667C40.7135 1.53333 41.4 2.21979 41.4 3.06667V37.2117C40.9343 36.9413 40.4053 36.7991 39.8667 36.8H38.3333V1.53333ZM1.53333 44.4667V9.2H3.06667V42.1667C3.06667 42.5901 3.40994 42.9333 3.83333 42.9333H19.6159L21.1493 44.4667H1.53333ZM22.2333 43.3826L20.4754 41.6246C20.3316 41.4809 20.1367 41.4 19.9333 41.4H4.6V6.13333H17.6954C17.8583 7.25775 18.3734 8.30156 19.1667 9.1149V9.96667H17.6333V11.5H22.2333V43.3826ZM22.2333 7.98407V9.96667H20.7V8.7883C20.7 8.57066 20.6074 8.36328 20.4455 8.2179C18.8682 6.80944 18.7314 4.38917 20.1399 2.81185C20.8672 1.99726 21.908 1.53209 23 1.53333C25.1146 1.53094 26.8307 3.24319 26.833 5.35766C26.8343 6.44977 26.3691 7.49043 25.5545 8.2179C25.3926 8.36328 25.3 8.57066 25.3 8.7883V9.96667H23.7667V7.98407L25.842 5.9087L24.758 4.82463L23 6.5826L21.242 4.82463L20.158 5.9087L22.2333 7.98407ZM23.7667 11.5H28.3667V9.96667H26.8333V9.1149C27.6266 8.30156 28.1416 7.25775 28.3046 6.13333H36.8V13.0333H26.8333C26.4099 13.0333 26.0667 13.3766 26.0667 13.8V23C26.0667 23.4234 26.4099 23.7667 26.8333 23.7667H36.8V25.3H32.2V26.8333H36.8V28.3667H26.0667V29.9H36.8V31.4333H26.0667V32.9667H36.8V34.5H26.0667V36.0333H36.8V37.5667C36.8 37.9901 37.1433 38.3333 37.5667 38.3333H39.8667C40.7135 38.3333 41.4 39.0198 41.4 39.8667C41.4 40.7135 40.7135 41.4 39.8667 41.4H26.0667C25.8633 41.4 25.6684 41.4809 25.5246 41.6246L23.7667 43.3826V11.5ZM36.5754 17.858C36.276 17.5587 35.7907 17.5587 35.4913 17.858L33.7333 19.6159L31.2087 17.0913C30.9093 16.792 30.424 16.792 30.1246 17.0913L27.6 19.6159V14.5667H36.8V18.0826L36.5754 17.858ZM36.8 20.2507V22.2333H27.6V21.7841L30.6667 18.7174L33.1913 21.242C33.4907 21.5413 33.976 21.5413 34.2754 21.242L36.0333 19.4841L36.8 20.2507ZM44.4667 44.4667H24.8507L26.3841 42.9333H39.8667C41.5603 42.9333 42.9333 41.5603 42.9333 39.8667V9.2H44.4667V44.4667Z" fill="white"/>
<path d="M19.1667 13.0333H7.66666C7.24327 13.0333 6.89999 13.3766 6.89999 13.8V23C6.89999 23.4234 7.24327 23.7667 7.66666 23.7667H19.1667C19.5901 23.7667 19.9333 23.4234 19.9333 23V13.8C19.9333 13.3766 19.5901 13.0333 19.1667 13.0333ZM18.4 22.2333H8.43333V21.7841L11.5 18.7174L14.0246 21.242C14.324 21.5413 14.8093 21.5413 15.1087 21.242L16.8667 19.4841L18.4 21.0174V22.2333ZM18.4 18.8493L17.4087 17.858C17.1093 17.5587 16.624 17.5587 16.3246 17.858L14.5667 19.6159L12.042 17.0913C11.7426 16.792 11.2573 16.792 10.958 17.0913L8.43333 19.6159V14.5667H18.4V18.8493Z" fill="white"/>
<path d="M15.3333 16.1H13.8V17.6333H15.3333V16.1Z" fill="white"/>
<path d="M11.5 25.3H9.96667V26.8334H11.5V25.3Z" fill="white"/>
<path d="M19.9333 25.3H13.0333V26.8334H19.9333V25.3Z" fill="white"/>
<path d="M19.9333 28.3666H6.89999V29.9H19.9333V28.3666Z" fill="white"/>
<path d="M19.9333 31.4333H6.89999V32.9667H19.9333V31.4333Z" fill="white"/>
<path d="M19.9333 34.5H6.89999V36.0333H19.9333V34.5Z" fill="white"/>
<path d="M16.8667 37.5667H6.89999V39.1H16.8667V37.5667Z" fill="white"/>
<path d="M34.5 16.1H32.9667V17.6333H34.5V16.1Z" fill="white"/>
<path d="M30.6667 25.3H29.1333V26.8334H30.6667V25.3Z" fill="white"/>
<path d="M35.2667 37.5667H26.0667V39.1H35.2667V37.5667Z" fill="white"/>
</svg>
