<svg width="208" height="200" viewBox="0 0 208 200" fill="none" xmlns="http://www.w3.org/2000/svg">
<circle cx="115.5" cy="87.5024" r="70.5" fill="#FFB800"/>
<circle cx="115.5" cy="87.5024" r="78" stroke="#367BF5" stroke-width="3"/>
<circle cx="11.5" cy="112.502" r="11.5" fill="#FFB800"/>
<circle cx="95.5" cy="187.502" r="11.5" fill="#FFB800"/>
<circle cx="95.5" cy="187.502" r="4.5" fill="white" fill-opacity="0.29"/>
<circle cx="194.5" cy="11.5024" r="11.5" fill="#367BF5"/>
<circle cx="26" cy="66.0024" r="7" fill="#367BF5"/>
<circle cx="199.5" cy="123.502" r="4.5" fill="#FFB800"/>
<circle cx="200.5" cy="41.5024" r="4.5" fill="#FFB800"/>
<circle cx="201" cy="7.00244" r="7" fill="white"/>
<path d="M150.946 88.9712C150.624 88.3137 150.624 87.5596 150.946 86.9022L153.925 80.808C155.583 77.4149 154.269 73.3705 150.933 71.6004L144.941 68.4211C144.295 68.0782 143.851 67.4679 143.725 66.7474L142.553 60.066C141.9 56.346 138.459 53.8463 134.72 54.3753L128.004 55.3253C127.279 55.4276 126.562 55.1946 126.037 54.6859L121.161 49.9696C118.447 47.3435 114.194 47.3434 111.48 49.9696L106.604 54.6863C106.078 55.1952 105.362 55.4278 104.637 55.3258L97.9205 54.3757C94.1804 53.8464 90.7406 56.3465 90.088 60.0665L88.9162 66.7475C88.7896 67.4683 88.3464 68.0784 87.7001 68.4214L81.7081 71.6007C78.3719 73.3707 77.0578 77.4153 78.7164 80.8085L81.6952 86.9025C82.0166 87.5601 82.0166 88.3142 81.6952 88.9716L78.7162 95.0656C77.0576 98.4587 78.3718 102.503 81.708 104.273L87.7 107.452C88.3464 107.795 88.7896 108.406 88.9162 109.126L90.088 115.808C90.6821 119.194 93.5859 121.569 96.9232 121.569C97.2519 121.569 97.5854 121.546 97.9207 121.498L104.637 120.548C105.361 120.445 106.079 120.679 106.605 121.188L111.48 125.904C112.837 127.217 114.579 127.873 116.32 127.873C118.062 127.873 119.804 127.217 121.161 125.904L126.037 121.188C126.563 120.679 127.28 120.446 128.004 120.548L134.72 121.498C138.461 122.027 141.9 119.527 142.553 115.807L143.725 109.126C143.852 108.406 144.295 107.796 144.941 107.452L150.933 104.273C154.269 102.503 155.583 98.4586 153.925 95.0654L150.946 88.9712ZM148.774 100.204L142.782 103.383C140.871 104.397 139.561 106.2 139.188 108.33L138.016 115.011C137.795 116.27 136.631 117.115 135.366 116.937L128.649 115.987C126.507 115.683 124.388 116.373 122.834 117.876L117.958 122.592C117.04 123.481 115.601 123.481 114.683 122.592L109.807 117.876C108.494 116.605 106.776 115.916 104.983 115.916C104.654 115.916 104.323 115.94 103.992 115.987L97.2753 116.937C96.0108 117.115 94.8462 116.27 94.6253 115.011L93.4533 108.33C93.0795 106.199 91.7694 104.396 89.8589 103.383L83.8669 100.203C82.7381 99.6046 82.2935 98.2363 82.8546 97.0883L85.8336 90.9941C86.7833 89.051 86.7833 86.8223 85.8336 84.8792L82.8546 78.785C82.2935 77.637 82.7381 76.2687 83.8669 75.6698L89.8589 72.4905C91.7693 71.4767 93.0795 69.6736 93.4531 67.5433L94.625 60.8621C94.8459 59.6035 96.0094 58.7579 97.275 58.9367L103.991 59.8868C106.132 60.1899 108.253 59.5008 109.807 57.9971L114.682 53.2809C115.601 52.3927 117.04 52.3927 117.958 53.2809L122.833 57.9971C124.388 59.501 126.508 60.1899 128.649 59.8868L135.365 58.9367C136.63 58.7578 137.795 59.6035 138.015 60.8621L139.187 67.5434C139.561 69.6738 140.871 71.477 142.782 72.4905L148.774 75.6698C149.902 76.2687 150.347 77.637 149.786 78.785L146.807 84.879C145.857 86.822 145.857 89.051 146.807 90.9939L149.786 97.088C150.347 98.2363 149.903 99.6047 148.774 100.204Z" fill="white"/>
<path d="M133.489 70.9C132.59 70.0005 131.131 70.0005 130.232 70.9L99.829 101.303C98.9295 102.202 98.9295 103.661 99.829 104.56C100.279 105.01 100.868 105.235 101.458 105.235C102.047 105.235 102.637 105.01 103.086 104.56L133.489 74.1576C134.389 73.2579 134.389 71.7996 133.489 70.9Z" fill="white"/>
<path d="M107.446 67C102.789 67 99 70.7888 99 75.4457C99 80.1027 102.789 83.8915 107.446 83.8915C112.103 83.8915 115.891 80.1027 115.891 75.4457C115.891 70.7888 112.103 67 107.446 67ZM107.446 79.2846C105.329 79.2846 103.607 77.5625 103.607 75.4456C103.607 73.3288 105.329 71.6067 107.446 71.6067C109.562 71.6067 111.285 73.3288 111.285 75.4456C111.285 77.5625 109.562 79.2846 107.446 79.2846Z" fill="white"/>
<path d="M125.873 91.5691C121.216 91.5691 117.427 95.3579 117.427 100.015C117.427 104.672 121.216 108.461 125.873 108.461C130.53 108.461 134.318 104.672 134.318 100.015C134.318 95.3579 130.53 91.5691 125.873 91.5691ZM125.873 103.854C123.756 103.854 122.034 102.132 122.034 100.015C122.034 97.898 123.756 96.176 125.873 96.176C127.989 96.176 129.711 97.898 129.711 100.015C129.711 102.132 127.989 103.854 125.873 103.854Z" fill="white"/>
</svg>
