<svg width="160" height="160" viewBox="0 0 160 160" fill="none" xmlns="http://www.w3.org/2000/svg">
<circle cx="80" cy="80" r="70.9434" fill="#FFB800"/>
<circle cx="80" cy="80" r="78.5" stroke="#367BF5" stroke-width="3"/>
<path d="M115.669 81.4804C115.345 80.8187 115.345 80.0599 115.669 79.3983L118.666 73.2658C120.335 69.8513 119.013 65.7816 115.656 64.0003L109.626 60.801C108.976 60.456 108.53 59.8418 108.402 59.1167L107.223 52.3934C106.566 48.65 103.104 46.1345 99.3414 46.6668L92.5828 47.6228C91.8533 47.7258 91.132 47.4913 90.6028 46.9794L85.697 42.2335C82.9653 39.5909 78.686 39.5907 75.9545 42.2335L71.0485 46.9798C70.5192 47.4919 69.7978 47.726 69.0685 47.6233L62.31 46.6673C58.5463 46.1347 55.0849 48.6504 54.4282 52.3938L53.249 59.1169C53.1217 59.8422 52.6757 60.4561 52.0253 60.8013L45.9956 64.0006C42.6384 65.7817 41.316 69.8518 42.985 73.2663L45.9826 79.3986C46.306 80.0603 46.306 80.8192 45.9826 81.4807L42.9849 87.613C41.3158 91.0276 42.6382 95.0973 45.9955 96.8786L52.0251 100.078C52.6757 100.423 53.1217 101.037 53.249 101.762L54.4282 108.486C55.026 111.893 57.9481 114.283 61.3064 114.283C61.6371 114.283 61.9728 114.26 62.3101 114.212L69.0687 113.256C69.7975 113.152 70.5193 113.387 71.0487 113.899L75.9545 118.645C77.3206 119.967 79.0728 120.627 80.8257 120.627C82.5781 120.627 84.3314 119.966 85.6968 118.645L90.6028 113.899C91.1322 113.387 91.8536 113.154 92.5828 113.256L99.3414 114.212C103.105 114.744 106.566 112.229 107.223 108.485L108.403 101.762C108.53 101.037 108.976 100.423 109.626 100.078L115.656 96.8786C119.013 95.0975 120.335 91.0274 118.666 87.6129L115.669 81.4804ZM113.483 92.7834L107.453 95.9827C105.531 97.0029 104.213 98.8173 103.837 100.961L102.657 107.684C102.435 108.951 101.264 109.801 99.9906 109.622L93.2321 108.666C91.0767 108.36 88.944 109.054 87.3797 110.567L82.4737 115.313C81.5497 116.207 80.1018 116.207 79.1775 115.313L74.2717 110.567C72.9496 109.288 71.2212 108.595 69.4169 108.595C69.0862 108.595 68.753 108.618 68.4192 108.666L61.6607 109.622C60.3882 109.801 59.2163 108.951 58.994 107.684L57.8146 100.961C57.4385 98.817 56.1202 97.0024 54.1976 95.9825L48.1679 92.7832C47.032 92.1806 46.5846 90.8037 47.1493 89.6485L50.147 83.516C51.1027 81.5606 51.1027 79.318 50.147 77.3626L47.1493 71.2301C46.5846 70.0749 47.032 68.698 48.1679 68.0953L54.1976 64.896C56.12 63.8758 57.4385 62.0614 57.8145 59.9177L58.9937 53.1944C59.216 51.9279 60.3868 51.0771 61.6604 51.257L68.4189 52.213C70.5735 52.518 72.707 51.8246 74.2714 50.3115L79.1774 45.5656C80.1014 44.6717 81.5492 44.6717 82.4735 45.5656L87.3793 50.3115C88.9437 51.8248 91.0769 52.518 93.2318 52.213L99.9903 51.257C101.263 51.0769 102.435 51.9279 102.657 53.1944L103.836 59.9178C104.212 62.0616 105.531 63.8761 107.453 64.896L113.483 68.0953C114.619 68.698 115.066 70.0749 114.502 71.2301L111.504 77.3624C110.548 79.3176 110.548 81.5606 111.504 83.5158L114.502 89.6482C115.066 90.8037 114.619 92.1807 113.483 92.7834Z" fill="white"/>
<path d="M97.7613 63.5033C96.8563 62.5982 95.3885 62.5982 94.4834 63.5033L63.8893 94.0975C62.9842 95.0027 62.9842 96.4703 63.8893 97.3755C64.3419 97.828 64.9351 98.0544 65.5282 98.0544C66.1213 98.0544 66.7147 97.8282 67.1671 97.3755L97.7611 66.7814C98.6666 65.8761 98.6666 64.4086 97.7613 63.5033Z" fill="white"/>
<path d="M71.554 59.5789C66.8678 59.5789 63.0552 63.3915 63.0552 68.0777C63.0552 72.7639 66.8678 76.5765 71.554 76.5765C76.2402 76.5765 80.0529 72.7639 80.0529 68.0777C80.0529 63.3915 76.2402 59.5789 71.554 59.5789ZM71.554 71.9407C69.4239 71.9407 67.691 70.2078 67.691 68.0775C67.691 65.9475 69.4239 64.2145 71.554 64.2145C73.6841 64.2145 75.4172 65.9475 75.4172 68.0775C75.417 70.2078 73.6841 71.9407 71.554 71.9407Z" fill="white"/>
<path d="M90.0967 84.3025C85.4105 84.3025 81.5979 88.1151 81.5979 92.8013C81.5979 97.4876 85.4105 101.3 90.0967 101.3C94.783 101.3 98.5956 97.4876 98.5956 92.8013C98.5956 88.1151 94.783 84.3025 90.0967 84.3025ZM90.0967 96.6643C87.9667 96.6643 86.2336 94.9314 86.2336 92.8013C86.2336 90.6712 87.9665 88.9383 90.0967 88.9383C92.2268 88.9383 93.9598 90.6712 93.9598 92.8013C93.9598 94.9314 92.2268 96.6643 90.0967 96.6643Z" fill="white"/>
</svg>
