<svg width="46" height="46" viewBox="0 0 46 46" fill="none" xmlns="http://www.w3.org/2000/svg">
<rect x="45.5" y="45.5" width="45" height="45" rx="1.5" transform="rotate(-180 45.5 45.5)" stroke="white"/>
<path d="M19.0264 18.6655C19.2898 18.9277 19.7158 18.9267 19.978 18.6633L22.3271 16.3028V30.5529C22.3271 30.9246 22.6284 31.2258 23 31.2258C23.3716 31.2258 23.6729 30.9246 23.6729 30.5529V16.3027L26.0221 18.6633C26.2842 18.9267 26.7102 18.9277 26.9736 18.6656C27.2371 18.4034 27.2381 17.9774 26.9759 17.714L23.4769 14.198C23.4767 14.1978 23.4765 14.1976 23.4763 14.1974C23.2142 13.9347 22.7867 13.9338 22.5237 14.1974C22.5235 14.1976 22.5233 14.1978 22.5231 14.198L19.0241 17.7139C18.762 17.9773 18.7629 18.4034 19.0264 18.6655Z" fill="white"/>
</svg>
